<svg data-v-423bf9ae="" xmlns="http://www.w3.org/2000/svg" viewBox="0 0 602 90" class="iconLeft"><!----><!----><!----><g data-v-423bf9ae="" id="4584a10d-4338-45c1-9440-aba979260699" fill="white" transform="matrix(4.444444444444445,0,0,4.444444444444445,313.14074865314694,-0.5999982886844251)"><path d="M3.92 13.71L3.92 13.71Q3.05 13.71 2.16 13.52L2.16 13.52L2.16 13.52Q1.26 13.33 0.71 13.08L0.71 13.08L0.90 11.66L0.90 11.66Q1.60 12.00 2.48 12.25L2.48 12.25L2.48 12.25Q3.36 12.50 4.23 12.50L4.23 12.50L4.23 12.50Q5.21 12.50 5.75 12.14L5.75 12.14L5.75 12.14Q6.29 11.79 6.29 11.07L6.29 11.07L6.29 11.07Q6.29 10.54 6.01 10.18L6.01 10.18L6.01 10.18Q5.74 9.83 5.21 9.58L5.21 9.58L5.21 9.58Q4.69 9.34 3.75 9.06L3.75 9.06L3.75 9.06Q2.80 8.78 2.17 8.46L2.17 8.46L2.17 8.46Q1.54 8.13 1.16 7.57L1.16 7.57L1.16 7.57Q0.77 7.01 0.77 6.16L0.77 6.16L0.77 6.16Q0.77 4.97 1.69 4.24L1.69 4.24L1.69 4.24Q2.60 3.51 4.27 3.51L4.27 3.51L4.27 3.51Q5.17 3.51 5.97 3.71L5.97 3.71L5.97 3.71Q6.78 3.91 7.38 4.19L7.38 4.19L7.24 5.60L7.24 5.60Q6.45 5.14 5.73 4.93L5.73 4.93L5.73 4.93Q5.00 4.72 4.21 4.72L4.21 4.72L4.21 4.72Q3.30 4.72 2.77 5.05L2.77 5.05L2.77 5.05Q2.23 5.39 2.23 6.09L2.23 6.09L2.23 6.09Q2.23 6.57 2.47 6.87L2.47 6.87L2.47 6.87Q2.72 7.18 3.18 7.40L3.18 7.40L3.18 7.40Q3.64 7.62 4.47 7.87L4.47 7.87L4.47 7.87Q6.12 8.37 6.93 9.06L6.93 9.06L6.93 9.06Q7.74 9.76 7.74 10.98L7.74 10.98L7.74 10.98Q7.74 12.26 6.78 12.98L6.78 12.98L6.78 12.98Q5.81 13.71 3.92 13.71L3.92 13.71ZM12.52 6.51L12.52 6.51Q13.43 6.51 14.11 6.98L14.11 6.98L14.11 6.98Q14.78 7.45 15.15 8.26L15.15 8.26L15.15 8.26Q15.51 9.07 15.51 10.08L15.51 10.08L15.51 10.08Q15.51 11.10 15.17 11.91L15.17 11.91L15.17 11.91Q14.83 12.71 14.15 13.18L14.15 13.18L14.15 13.18Q13.48 13.65 12.52 13.65L12.52 13.65L12.52 13.65Q11.80 13.65 11.21 13.40L11.21 13.40L11.21 13.40Q10.63 13.15 10.29 12.67L10.29 12.67L10.29 16.90L9.03 16.90L9.03 6.65L10.01 6.65L10.15 7.60L10.15 7.60Q11.02 6.51 12.52 6.51L12.52 6.51ZM12.28 12.53L12.28 12.53Q13.19 12.53 13.71 11.88L13.71 11.88L13.71 11.88Q14.22 11.23 14.22 10.08L14.22 10.08L14.22 10.08Q14.22 8.93 13.71 8.28L13.71 8.28L13.71 8.28Q13.19 7.63 12.28 7.63L12.28 7.63L12.28 7.63Q11.38 7.63 10.80 8.26L10.80 8.26L10.80 8.26Q10.22 8.89 10.22 10.08L10.22 10.08L10.22 10.08Q10.22 11.31 10.79 11.92L10.79 11.92L10.79 11.92Q11.37 12.53 12.28 12.53L12.28 12.53ZM18.42 13.65L18.42 13.65Q17.47 13.65 16.89 13.09L16.89 13.09L16.89 13.09Q16.31 12.53 16.31 11.66L16.31 11.66L16.31 11.66Q16.31 10.36 17.54 9.80L17.54 9.80L17.54 9.80Q18.77 9.24 20.41 9.21L20.41 9.21L20.41 9.21Q20.41 8.29 20.05 7.96L20.05 7.96L20.05 7.96Q19.70 7.63 18.91 7.63L18.91 7.63L18.91 7.63Q18.48 7.63 18.05 7.76L18.05 7.76L18.05 7.76Q17.61 7.90 17.11 8.25L17.11 8.25L16.93 7.22L16.93 7.22Q17.35 6.90 17.96 6.71L17.96 6.71L17.96 6.71Q18.58 6.51 19.25 6.51L19.25 6.51L19.25 6.51Q20.13 6.51 20.66 6.82L20.66 6.82L20.66 6.82Q21.18 7.13 21.43 7.84L21.43 7.84L21.43 7.84Q21.67 8.55 21.67 9.80L21.67 9.80L21.67 11.20L21.67 11.20Q21.67 11.76 21.72 12.05L21.72 12.05L21.72 12.05Q21.77 12.33 21.94 12.49L21.94 12.49L21.94 12.49Q22.11 12.64 22.46 12.64L22.46 12.64L22.58 12.64L22.39 13.65L22.29 13.65L22.29 13.65Q21.70 13.65 21.36 13.54L21.36 13.54L21.36 13.54Q21.03 13.43 20.85 13.22L20.85 13.22L20.85 13.22Q20.68 13.01 20.52 12.64L20.52 12.64L20.52 12.64Q19.66 13.65 18.42 13.65L18.42 13.65ZM18.66 12.64L18.66 12.64Q19.17 12.64 19.64 12.39L19.64 12.39L19.64 12.39Q20.10 12.14 20.41 11.72L20.41 11.72L20.41 10.08L20.41 10.08Q18.90 10.14 18.25 10.48L18.25 10.48L18.25 10.48Q17.60 10.82 17.60 11.59L17.60 11.59L17.60 11.59Q17.60 12.12 17.89 12.38L17.89 12.38L17.89 12.38Q18.17 12.64 18.66 12.64L18.66 12.64ZM26.70 13.65L26.70 13.65Q25.58 13.65 24.77 13.19L24.77 13.19L24.77 13.19Q23.97 12.73 23.56 11.92L23.56 11.92L23.56 11.92Q23.16 11.12 23.16 10.12L23.16 10.12L23.16 10.12Q23.16 8.50 24.07 7.50L24.07 7.50L24.07 7.50Q24.99 6.51 26.80 6.51L26.80 6.51L26.80 6.51Q27.86 6.51 28.67 6.92L28.67 6.92L28.48 8.02L28.48 8.02Q27.62 7.63 26.77 7.63L26.77 7.63L26.77 7.63Q25.65 7.63 25.05 8.27L25.05 8.27L25.05 8.27Q24.44 8.90 24.44 10.07L24.44 10.07L24.44 10.07Q24.44 11.23 25.02 11.89L25.02 11.89L25.02 11.89Q25.61 12.54 26.74 12.54L26.74 12.54L26.74 12.54Q27.65 12.54 28.49 12.12L28.49 12.12L28.66 13.13L28.66 13.13Q28.35 13.34 27.81 13.50L27.81 13.50L27.81 13.50Q27.27 13.65 26.70 13.65L26.70 13.65ZM33.19 13.65L33.19 13.65Q32.02 13.65 31.18 13.17L31.18 13.17L31.18 13.17Q30.35 12.68 29.92 11.86L29.92 11.86L29.92 11.86Q29.48 11.03 29.48 10.02L29.48 10.02L29.48 10.02Q29.48 9.06 29.88 8.25L29.88 8.25L29.88 8.25Q30.28 7.45 31.04 6.98L31.04 6.98L31.04 6.98Q31.81 6.51 32.84 6.51L32.84 6.51L32.84 6.51Q34.16 6.51 34.98 7.28L34.98 7.28L34.98 7.28Q35.80 8.05 35.80 9.41L35.80 9.41L35.80 9.41Q35.80 9.76 35.74 10.08L35.74 10.08L30.77 10.08L30.77 10.08Q30.90 11.41 31.58 11.97L31.58 11.97L31.58 11.97Q32.27 12.53 33.35 12.53L33.35 12.53L33.35 12.53Q34.43 12.53 35.32 12.12L35.32 12.12L35.49 13.12L35.49 13.12Q34.30 13.65 33.19 13.65L33.19 13.65ZM30.88 9.21L34.50 9.21L34.50 9.21Q34.50 8.47 34.08 8.05L34.08 8.05L34.08 8.05Q33.66 7.63 32.82 7.63L32.82 7.63L32.82 7.63Q32.00 7.63 31.54 8.03L31.54 8.03L31.54 8.03Q31.08 8.43 30.88 9.21L30.88 9.21ZM40.14 13.71L40.14 13.71Q39.27 13.71 38.37 13.52L38.37 13.52L38.37 13.52Q37.48 13.33 36.93 13.08L36.93 13.08L37.11 11.66L37.11 11.66Q37.81 12.00 38.70 12.25L38.70 12.25L38.70 12.25Q39.58 12.50 40.45 12.50L40.45 12.50L40.45 12.50Q41.43 12.50 41.96 12.14L41.96 12.14L41.96 12.14Q42.50 11.79 42.50 11.07L42.50 11.07L42.50 11.07Q42.50 10.54 42.23 10.18L42.23 10.18L42.23 10.18Q41.96 9.83 41.43 9.58L41.43 9.58L41.43 9.58Q40.91 9.34 39.97 9.06L39.97 9.06L39.97 9.06Q39.02 8.78 38.39 8.46L38.39 8.46L38.39 8.46Q37.76 8.13 37.37 7.57L37.37 7.57L37.37 7.57Q36.99 7.01 36.99 6.16L36.99 6.16L36.99 6.16Q36.99 4.97 37.90 4.24L37.90 4.24L37.90 4.24Q38.82 3.51 40.49 3.51L40.49 3.51L40.49 3.51Q41.38 3.51 42.19 3.71L42.19 3.71L42.19 3.71Q42.99 3.91 43.60 4.19L43.60 4.19L43.46 5.60L43.46 5.60Q42.67 5.14 41.94 4.93L41.94 4.93L41.94 4.93Q41.22 4.72 40.43 4.72L40.43 4.72L40.43 4.72Q39.52 4.72 38.98 5.05L38.98 5.05L38.98 5.05Q38.44 5.39 38.44 6.09L38.44 6.09L38.44 6.09Q38.44 6.57 38.69 6.87L38.69 6.87L38.69 6.87Q38.93 7.18 39.40 7.40L39.40 7.40L39.40 7.40Q39.86 7.62 40.68 7.87L40.68 7.87L40.68 7.87Q42.34 8.37 43.15 9.06L43.15 9.06L43.15 9.06Q43.96 9.76 43.96 10.98L43.96 10.98L43.96 10.98Q43.96 12.26 42.99 12.98L42.99 12.98L42.99 12.98Q42.03 13.71 40.14 13.71L40.14 13.71ZM46.84 13.65L46.84 13.65Q45.89 13.65 45.31 13.09L45.31 13.09L45.31 13.09Q44.73 12.53 44.73 11.66L44.73 11.66L44.73 11.66Q44.73 10.36 45.96 9.80L45.96 9.80L45.96 9.80Q47.19 9.24 48.83 9.21L48.83 9.21L48.83 9.21Q48.83 8.29 48.48 7.96L48.48 7.96L48.48 7.96Q48.12 7.63 47.33 7.63L47.33 7.63L47.33 7.63Q46.90 7.63 46.47 7.76L46.47 7.76L46.47 7.76Q46.03 7.90 45.53 8.25L45.53 8.25L45.35 7.22L45.35 7.22Q45.77 6.90 46.38 6.71L46.38 6.71L46.38 6.71Q47.00 6.51 47.67 6.51L47.67 6.51L47.67 6.51Q48.55 6.51 49.08 6.82L49.08 6.82L49.08 6.82Q49.60 7.13 49.85 7.84L49.85 7.84L49.85 7.84Q50.09 8.55 50.09 9.80L50.09 9.80L50.09 11.20L50.09 11.20Q50.09 11.76 50.14 12.05L50.14 12.05L50.14 12.05Q50.19 12.33 50.36 12.49L50.36 12.49L50.36 12.49Q50.53 12.64 50.88 12.64L50.88 12.64L51.00 12.64L50.81 13.65L50.71 13.65L50.71 13.65Q50.12 13.65 49.78 13.54L49.78 13.54L49.78 13.54Q49.45 13.43 49.27 13.22L49.27 13.22L49.27 13.22Q49.10 13.01 48.94 12.64L48.94 12.64L48.94 12.64Q48.08 13.65 46.84 13.65L46.84 13.65ZM47.08 12.64L47.08 12.64Q47.59 12.64 48.05 12.39L48.05 12.39L48.05 12.39Q48.52 12.14 48.83 11.72L48.83 11.72L48.83 10.08L48.83 10.08Q47.32 10.14 46.67 10.48L46.67 10.48L46.67 10.48Q46.02 10.82 46.02 11.59L46.02 11.59L46.02 11.59Q46.02 12.12 46.30 12.38L46.30 12.38L46.30 12.38Q46.59 12.64 47.08 12.64L47.08 12.64ZM54.74 17.01L54.74 17.01Q53.28 17.01 52.38 16.48L52.38 16.48L52.38 16.48Q51.48 15.95 51.48 14.97L51.48 14.97L51.48 14.97Q51.48 13.89 52.67 13.36L52.67 13.36L52.67 13.36Q52.00 13.02 52.00 12.49L52.00 12.49L52.00 12.49Q52.00 11.82 52.81 11.49L52.81 11.49L52.81 11.49Q52.23 11.14 51.93 10.54L51.93 10.54L51.93 10.54Q51.62 9.94 51.62 9.18L51.62 9.18L51.62 9.18Q51.62 8.43 51.96 7.82L51.96 7.82L51.96 7.82Q52.30 7.21 52.94 6.86L52.94 6.86L52.94 6.86Q53.58 6.51 54.45 6.51L54.45 6.51L54.45 6.51Q55.37 6.51 56.13 7.04L56.13 7.04L56.13 7.04Q56.87 6.62 57.83 6.62L57.83 6.62L57.95 6.62L57.79 7.46L57.47 7.46L57.47 7.46Q57.34 7.46 57.11 7.49L57.11 7.49L57.11 7.49Q56.87 7.52 56.69 7.56L56.69 7.56L56.69 7.56Q56.98 7.90 57.13 8.32L57.13 8.32L57.13 8.32Q57.29 8.74 57.29 9.18L57.29 9.18L57.29 9.18Q57.29 9.97 56.95 10.59L56.95 10.59L56.95 10.59Q56.60 11.21 55.96 11.57L55.96 11.57L55.96 11.57Q55.31 11.93 54.45 11.93L54.45 11.93L54.45 11.93Q53.94 11.93 53.52 11.80L53.52 11.80L53.52 11.80Q53.20 11.91 53.20 12.17L53.20 12.17L53.20 12.17Q53.20 12.50 53.97 12.61L53.97 12.61L55.80 12.91L55.80 12.91Q56.95 13.09 57.54 13.57L57.54 13.57L57.54 13.57Q58.13 14.04 58.13 14.88L58.13 14.88L58.13 14.88Q58.13 15.93 57.22 16.47L57.22 16.47L57.22 16.47Q56.32 17.01 54.74 17.01L54.74 17.01ZM54.45 10.92L54.45 10.92Q55.23 10.92 55.66 10.45L55.66 10.45L55.66 10.45Q56.08 9.98 56.08 9.20L56.08 9.20L56.08 9.20Q56.08 8.44 55.66 7.98L55.66 7.98L55.66 7.98Q55.23 7.52 54.45 7.52L54.45 7.52L54.45 7.52Q53.66 7.52 53.24 7.98L53.24 7.98L53.24 7.98Q52.82 8.44 52.82 9.20L52.82 9.20L52.82 9.20Q52.82 9.98 53.24 10.45L53.24 10.45L53.24 10.45Q53.66 10.92 54.45 10.92L54.45 10.92ZM54.85 15.89L54.85 15.89Q55.82 15.89 56.34 15.64L56.34 15.64L56.34 15.64Q56.85 15.39 56.85 14.91L56.85 14.91L56.85 14.91Q56.85 14.55 56.54 14.33L56.54 14.33L56.54 14.33Q56.22 14.11 55.59 13.99L55.59 13.99L53.63 13.65L53.63 13.65Q53.21 13.85 52.95 14.13L52.95 14.13L52.95 14.13Q52.68 14.42 52.68 14.77L52.68 14.77L52.68 14.77Q52.68 15.34 53.26 15.62L53.26 15.62L53.26 15.62Q53.83 15.89 54.85 15.89L54.85 15.89ZM62.23 13.65L62.23 13.65Q61.05 13.65 60.22 13.17L60.22 13.17L60.22 13.17Q59.39 12.68 58.95 11.86L58.95 11.86L58.95 11.86Q58.52 11.03 58.52 10.02L58.52 10.02L58.52 10.02Q58.52 9.06 58.92 8.25L58.92 8.25L58.92 8.25Q59.32 7.45 60.08 6.98L60.08 6.98L60.08 6.98Q60.84 6.51 61.88 6.51L61.88 6.51L61.88 6.51Q63.20 6.51 64.02 7.28L64.02 7.28L64.02 7.28Q64.83 8.05 64.83 9.41L64.83 9.41L64.83 9.41Q64.83 9.76 64.78 10.08L64.78 10.08L59.81 10.08L59.81 10.08Q59.93 11.41 60.62 11.97L60.62 11.97L60.62 11.97Q61.31 12.53 62.38 12.53L62.38 12.53L62.38 12.53Q63.46 12.53 64.36 12.12L64.36 12.12L64.53 13.12L64.53 13.12Q63.34 13.65 62.23 13.65L62.23 13.65ZM59.92 9.21L63.53 9.21L63.53 9.21Q63.53 8.47 63.11 8.05L63.11 8.05L63.11 8.05Q62.69 7.63 61.85 7.63L61.85 7.63L61.85 7.63Q61.04 7.63 60.58 8.03L60.58 8.03L60.58 8.03Q60.12 8.43 59.92 9.21L59.92 9.21Z"></path></g><!----><g data-v-423bf9ae="" id="49ee5b39-81ba-48fb-bdeb-aaba022a9dea" transform="matrix(2.962962962962963,0,0,2.962962962962963,0.8518527292215197,0)" stroke="none" fill="white"><path d="M94.85 1.121C94.85.502 94.348 0 93.729 0h-4.833c-.62 0-1.122.502-1.122 1.121v2.154L94.85 8.29V1.121zM12.958 16.227h-1.753a.414.414 0 0 0-.414.416v1.213c0 .23.186.415.414.415h1.753a.414.414 0 0 0 .414-.415v-1.213a.414.414 0 0 0-.414-.416zM16.637 16.227h-1.753a.415.415 0 0 0-.414.416v1.213c0 .23.187.415.414.415h1.753a.414.414 0 0 0 .414-.415v-1.213a.415.415 0 0 0-.414-.416zM20.315 16.227h-1.753a.414.414 0 0 0-.414.416v1.213c0 .23.186.415.414.415h1.753a.414.414 0 0 0 .414-.415v-1.213a.413.413 0 0 0-.414-.416zM22.242 18.271h1.752a.414.414 0 0 0 .414-.415v-1.213a.415.415 0 0 0-.414-.416h-1.752a.414.414 0 0 0-.415.416v1.213c0 .23.185.415.415.415z"></path><path d="M98.882 27.502h-4.264V13.205h3.174a.476.476 0 0 0 .274-.864L84.42 2.504c-.792-.561-1.554-.863-2.714-.863-1.159 0-2.52.935-2.52.935h-58.92s-1.241-.935-2.652-.935c-1.412 0-1.857.506-2.653.965L1.182 12.551c-.329.16-.215.654.15.654h3.877v14.298H1.12A1.12 1.12 0 0 0 0 28.624v.63a1.12 1.12 0 0 0 1.12 1.121h97.762A1.12 1.12 0 0 0 100 29.254v-.63c0-.62-.5-1.122-1.118-1.122zm-73.094 0H9.041V16.196a11.414 11.414 0 0 1 4.649-2.992 11.48 11.48 0 0 1 4.26-.604c1.081.05 2.154.25 3.188.604a11.415 11.415 0 0 1 4.648 2.992c.002 3.771.002 7.54.002 11.306zm1.242-14.261h-2.281l-7.163-4.818-7.163 4.818H8.141a.295.295 0 0 1-.201-.51l9.101-6.626a.799.799 0 0 1 1.091 0l9.101 6.626a.295.295 0 0 1-.203.51zm8.758 8.897a.746.746 0 0 1-.747.747h-3.154a.746.746 0 0 1-.747-.747V19.95c0-.412.334-.746.747-.746h3.154c.413 0 .747.334.747.746v2.188zm0-4.863a.746.746 0 0 1-.747.747h-3.154a.746.746 0 0 1-.747-.747v-2.187c0-.412.334-.747.747-.747h3.154c.413 0 .747.335.747.747v2.187zm5.734 4.863a.747.747 0 0 1-.747.747h-3.156a.746.746 0 0 1-.746-.747V19.95c0-.412.334-.746.746-.746h3.156c.412 0 .747.334.747.746v2.188zm0-4.863a.747.747 0 0 1-.747.747h-3.156a.746.746 0 0 1-.746-.747v-2.187c0-.412.334-.747.746-.747h3.156c.412 0 .747.335.747.747v2.187zm10.803 4.863a.747.747 0 0 1-.747.747h-3.156a.746.746 0 0 1-.746-.747V19.95c0-.412.334-.746.746-.746h3.156c.412 0 .747.334.747.746v2.188zm0-4.863a.747.747 0 0 1-.747.747h-3.156a.746.746 0 0 1-.746-.747v-2.187c0-.412.334-.747.746-.747h3.156c.412 0 .747.335.747.747v2.187zm5.734 4.863a.747.747 0 0 1-.748.747h-3.155a.746.746 0 0 1-.746-.747V19.95c0-.412.334-.746.746-.746h3.155c.414 0 .748.334.748.746v2.188zm0-4.863a.747.747 0 0 1-.748.747h-3.155a.746.746 0 0 1-.746-.747v-2.187c0-.412.334-.747.746-.747h3.155c.414 0 .748.335.748.747v2.187zm11.852 10.273h-6.628V15.946a4.543 4.543 0 0 1 6.628 0v11.602zm12.054-5.41a.747.747 0 0 1-.747.747h-3.155a.746.746 0 0 1-.746-.747V19.95c0-.412.334-.746.746-.746h3.155c.412 0 .747.334.747.746v2.188zm0-4.863a.747.747 0 0 1-.747.747h-3.155a.746.746 0 0 1-.746-.747v-2.187c0-.412.334-.747.746-.747h3.155c.412 0 .747.335.747.747v2.187zm5.734 4.863a.747.747 0 0 1-.748.747h-3.155a.746.746 0 0 1-.746-.747V19.95c0-.412.334-.746.746-.746h3.155c.413 0 .748.334.748.746v2.188zm0-4.863a.747.747 0 0 1-.748.747h-3.155a.746.746 0 0 1-.746-.747v-2.187c0-.412.334-.747.746-.747h3.155c.413 0 .748.335.748.747v2.187zm4.229-4.034h-2.282l-7.163-4.818-7.164 4.818h-2.283a.294.294 0 0 1-.198-.51l9.1-6.626a.798.798 0 0 1 1.09 0l9.102 6.626c.192.183.063.51-.202.51z"></path></g><!----></svg>